<svg xmlns="http://www.w3.org/2000/svg" viewBox="0 0 153 39"><defs><style>.cls-1{fill:#41a96e;}.cls-2{fill:#f5bb3d;}.cls-3{fill:#e280a3;}</style></defs><title>elements</title><g id="レイヤー_1" data-name="レイヤー 1"><polygon points="1.5 1.579 6.661 1.579 6.661 17.01 13.035 17.01 13.035 7.023 18.195 7.023 18.195 37.6 13.035 37.6 13.035 21.563 6.661 21.563 6.661 37.6 1.5 37.6 1.5 1.579"/><polygon points="23.051 1.579 38.431 1.579 38.431 6.436 28.212 6.436 28.212 17.01 37.116 17.01 37.116 21.867 28.212 21.867 28.212 32.44 38.431 32.44 38.431 37.6 23.051 37.6 23.051 1.579"/><path d="M41.77,1.5791h8.2968q9.1062,0,9.107,10.5738a13.3677,13.3677,0,0,1-.9869,5.3876,7.6283,7.6283,0,0,1-3.4658,3.6177L60.2867,37.6H54.8228L50.0161,22.2207H46.93V37.6H41.77Z"/><path class="cls-1" d="M46.93,17.6675h2.9346a5.1963,5.1963,0,0,0,2.1748-.3794A2.8054,2.8054,0,0,0,53.28,16.2a4.6365,4.6365,0,0,0,.5811-1.7461,16.7117,16.7117,0,0,0,.1523-2.4028,16.7206,16.7206,0,0,0-.1523-2.4024,4.3334,4.3334,0,0,0-.6319-1.771,2.8636,2.8636,0,0,0-1.3408-1.0874,6.0808,6.0808,0,0,0-2.2764-.3544H46.93Z"/><polygon points="63.321 1.579 68.279 1.579 74.907 20.653 75.007 20.653 81.585 1.579 86.593 1.579 86.593 37.6 81.433 37.6 81.433 15.694 81.332 15.694 76.222 31.175 73.642 31.175 68.583 15.694 68.482 15.694 68.482 37.6 63.321 37.6 63.321 1.579"/><polygon points="97.167 1.579 101.466 1.579 109.511 37.6 104.351 37.6 102.833 29.86 95.8 29.86 94.283 37.6 89.123 37.6 97.167 1.579"/><polygon class="cls-2" points="99.342 11.951 99.241 11.951 96.712 25.003 101.872 25.003 99.342 11.951"/><polygon points="111.837 1.579 116.796 1.579 124.587 23.283 124.688 23.283 124.688 1.579 129.848 1.579 129.848 37.6 124.991 37.6 117.099 15.947 116.998 15.947 116.998 37.6 111.837 37.6 111.837 1.579"/><path d="M134.1978,10.0786a9.2076,9.2076,0,0,1,.76-3.8452,8.0251,8.0251,0,0,1,1.998-2.7573,8.6551,8.6551,0,0,1,2.7822-1.644,8.98,8.98,0,0,1,6.2227,0,8.67,8.67,0,0,1,2.7832,1.644,8.05,8.05,0,0,1,1.998,2.7573,9.2076,9.2076,0,0,1,.7583,3.8452V29.1011a9.1517,9.1517,0,0,1-.7583,3.87,8.0922,8.0922,0,0,1-1.998,2.732,8.6035,8.6035,0,0,1-2.7832,1.6445,8.982,8.982,0,0,1-6.2227,0,8.5885,8.5885,0,0,1-2.7822-1.6445,8.0669,8.0669,0,0,1-1.998-2.732,9.1514,9.1514,0,0,1-.76-3.87Z"/><path class="cls-3" d="M139.3589,29.1011a3.4245,3.4245,0,0,0,1.0371,2.7568,3.8429,3.8429,0,0,0,4.9073,0,3.431,3.431,0,0,0,1.0371-2.7568V10.0786a3.4348,3.4348,0,0,0-1.0371-2.7573,3.8432,3.8432,0,0,0-4.9073,0,3.4283,3.4283,0,0,0-1.0371,2.7573Z"/><path class="cls-1" d="M15.5044,6.2593a5.9451,5.9451,0,0,0-3.3867-1.1621C9.7066,4.9849,7.8,2.35,9.3706.6665a3.9825,3.9825,0,0,1,5.8516.499A4.26,4.26,0,0,1,15.5044,6.2593Z"/><path class="cls-1" d="M15.5044,6.2593a5.95,5.95,0,0,1,3.3867-1.1621c2.4117-.1123,4.3194-2.7476,2.7481-4.43a3.982,3.982,0,0,0-5.8516.4985A4.26,4.26,0,0,0,15.5044,6.2593Z"/></g></svg>