<svg xmlns="http://www.w3.org/2000/svg" width="137.857" height="181.76" viewBox="0 0 137.857 181.76">
  <g id="Group_542" data-name="Group 542" transform="translate(-1144.823 -767.12)">
    <g id="Group_508" data-name="Group 508">
      <g id="Group_507" data-name="Group 507">
        <path id="Path_1400" data-name="Path 1400" d="M1144.823,922.157h3.8v11.351h4.689v-7.344h3.8v22.493h-3.8v-11.8h-4.689v11.8h-3.8Z" fill="#150301"/>
        <path id="Path_1401" data-name="Path 1401" d="M1160.68,922.157H1172v3.572h-7.519v7.779h6.55v3.572h-6.55v7.781H1172v3.8H1160.68Z" fill="#150301"/>
        <path id="Path_1402" data-name="Path 1402" d="M1174.451,922.157h6.1q6.7,0,6.7,7.778a9.8,9.8,0,0,1-.726,3.963,5.62,5.62,0,0,1-2.549,2.665l4.094,12.1h-4.019l-3.536-11.314h-2.271v11.314h-3.8Zm3.8,11.837h2.159a3.86,3.86,0,0,0,1.6-.28,2.03,2.03,0,0,0,.91-.8,3.379,3.379,0,0,0,.429-1.283,14.011,14.011,0,0,0,0-3.537,3.21,3.21,0,0,0-.465-1.3,2.11,2.11,0,0,0-.987-.8,4.5,4.5,0,0,0-1.674-.263h-1.973Z" fill="#150301"/>
        <path id="Path_1403" data-name="Path 1403" d="M1190.307,922.157h3.648l4.875,14.032h.074l4.838-14.032h3.686v26.5h-3.8V932.543h-.074l-3.761,11.39h-1.9l-3.723-11.39h-.073v16.115h-3.8Z" fill="#150301"/>
        <path id="Path_1404" data-name="Path 1404" d="M1215.2,922.157h3.166l5.92,26.5h-3.8l-1.115-5.694H1214.2l-1.115,5.694h-3.8Zm1.6,7.63h-.07l-1.863,9.605h3.8Z" fill="#150301"/>
        <path id="Path_1405" data-name="Path 1405" d="M1226,922.157h3.646l5.731,15.97h.076v-15.97h3.8v26.5h-3.572l-5.809-15.932h-.072v15.932H1226Z" fill="#150301"/>
        <path id="Path_1406" data-name="Path 1406" d="M1242.451,928.409a6.746,6.746,0,0,1,.559-2.828,5.881,5.881,0,0,1,1.47-2.026,6.369,6.369,0,0,1,2.047-1.213,6.667,6.667,0,0,1,4.582,0,6.389,6.389,0,0,1,2.042,1.213,5.943,5.943,0,0,1,1.474,2.026,6.794,6.794,0,0,1,.554,2.828v14a6.759,6.759,0,0,1-.554,2.845,6.068,6.068,0,0,1-1.474,2.013,6.445,6.445,0,0,1-2.042,1.207,6.652,6.652,0,0,1-4.582,0,6.424,6.424,0,0,1-2.047-1.207,6,6,0,0,1-1.47-2.013,6.711,6.711,0,0,1-.559-2.845Zm3.8,14a2.523,2.523,0,0,0,.762,2.026,2.826,2.826,0,0,0,3.611,0,2.525,2.525,0,0,0,.766-2.026v-14a2.532,2.532,0,0,0-.766-2.026,2.819,2.819,0,0,0-3.611,0,2.53,2.53,0,0,0-.762,2.026Z" fill="#150301"/>
      </g>
      <path id="Path_1407" data-name="Path 1407" d="M1159.64,921.484a2.929,2.929,0,0,0-4.3.369,3.12,3.12,0,0,0-.209.347,3.267,3.267,0,0,0-.208-.347,2.931,2.931,0,0,0-4.306-.369c-1.154,1.24.249,3.179,2.021,3.261a4.063,4.063,0,0,0,4.984,0C1159.394,924.663,1160.8,922.724,1159.64,921.484Z" fill="#41a96e"/>
    </g>
    <path id="Path_1408" data-name="Path 1408" d="M1278.909,774.069c-8.61-9.232-26.953-10.34-38.527,3.283a26.062,26.062,0,0,0-1.863,2.515,26.393,26.393,0,0,0-1.863-2.515c-11.581-13.623-29.923-12.515-38.528-3.285-10.337,11.081,2.213,28.433,18.087,29.173,7.6.355,16.436,2.769,22.3,7.652,5.872-4.883,14.706-7.3,22.3-7.652C1276.7,802.5,1289.254,785.148,1278.909,774.069Z" fill="#41a96e"/>
    <g id="Group_509" data-name="Group 509">
      <rect id="Rectangle_274" data-name="Rectangle 274" width="33.317" height="135.343" transform="translate(1144.825 780.074)" fill="#150301"/>
      <rect id="Rectangle_275" data-name="Rectangle 275" width="110.354" height="33.318" transform="translate(1144.825 882.099)" fill="#150301"/>
      <rect id="Rectangle_276" data-name="Rectangle 276" width="33.318" height="99.282" transform="translate(1221.861 816.136)" fill="#150301"/>
    </g>
  </g>
</svg>
