<svg xmlns="http://www.w3.org/2000/svg" xmlns:xlink="http://www.w3.org/1999/xlink" viewBox="0 0 209 131"><defs><style>.cls-1,.cls-5{fill:none;}.cls-2{fill:#ffe000;}.cls-3{fill:#ffb800;}.cls-4{fill:url(#新規パターンスウォッチ_5);}.cls-5{stroke:#f5bb3d;stroke-miterlimit:10;stroke-width:3px;}.cls-6{fill:#89be1f;}.cls-7{fill:#f5bb3d;}.cls-8{fill:#e280a3;}.cls-9{fill:#41a96e;}</style><pattern id="新規パターンスウォッチ_5" data-name="新規パターンスウォッチ 5" width="20" height="20" patternTransform="translate(155.75 -76.25)" patternUnits="userSpaceOnUse" viewBox="0 0 20 20"><rect class="cls-1" width="20" height="20"/><rect class="cls-2" width="20" height="20"/><rect class="cls-3" x="4" y="4" width="2" height="2"/><rect class="cls-3" x="14" y="14" width="2" height="2"/></pattern></defs><title>elements</title><g id="レイヤー_1" data-name="レイヤー 1"><rect class="cls-4" x="7.75" y="5.75" width="195" height="120" rx="10"/><rect class="cls-5" x="7.75" y="5.75" width="195" height="120" rx="10"/><path d="M41.2593,105.87c0,.0977-.0137.1118-.1118.1118-.07,0-.4624-.0278-1.6949-.0278h-.4345a5.6624,5.6624,0,0,0,2.0732,1.793,1.5561,1.5561,0,0,0-.3359.49c-.0562.1123-.0845.168-.1265.168s-.0976-.042-.1958-.126a6.1548,6.1548,0,0,1-1.709-1.877c.0279,2.2549.0982,3.586.0982,4.1739,0,.0986-.0142.1123-.1265.1123h-.63c-.0981,0-.1123-.0137-.1123-.1123,0-.5742.042-1.835.084-4.0059a8.5615,8.5615,0,0,1-2.3813,2.8858c-.0982.07-.1539.1118-.21.1118s-.084-.0562-.14-.168a1.7088,1.7088,0,0,0-.378-.5181,8.3452,8.3452,0,0,0,2.8013-2.9277h-.7144c-1.2324,0-1.6386.0278-1.7089.0278-.0982,0-.1119-.0141-.1119-.1118v-.56c0-.0977.0137-.1123.1119-.1123.07,0,.4765.0283,1.7089.0283h.9805v-.0283a6.1625,6.1625,0,0,0-.084-1.3164c.294.0136.6162.042.8545.07.084.0136.14.0556.14.1118a.4051.4051,0,0,1-.0562.1958,2.8034,2.8034,0,0,0-.07.9385v.0283h.6723c1.2325,0,1.6245-.0283,1.6949-.0283.0981,0,.1118.0146.1118.1123Zm.2383-2.3535c0,.0981-.0142.1123-.1123.1123-.084,0-.49-.0283-1.7369-.0283H36.9453c-1.2607,0-1.667.0283-1.7373.0283-.0981,0-.1118-.0142-.1118-.1123v-.5742c0-.0982.0137-.1123.1118-.1123.07,0,.4766.0283,1.7373.0283h1.8486a10.9157,10.9157,0,0,0,.6446-1.5967,2.2176,2.2176,0,0,0,.126-.6025c.3081.07.5322.126.7563.1963.126.042.168.0976.168.1679s-.042.1119-.0977.168a.9117.9117,0,0,0-.21.3223,14.0162,14.0162,0,0,1-.6162,1.3447h.0839c1.2188,0,1.625-.0283,1.7369-.0283.0981,0,.1123.0141.1123.1123Zm-.2242-3.3057c0,.0977-.0141.1123-.1118.1123-.07,0-.4624-.0283-1.667-.0283H37.1694c-1.205,0-1.5971.0283-1.667.0283-.0981,0-.1123-.0146-.1123-.1123v-.5463c0-.0982.0142-.1119.1123-.1119.07,0,.462.0279,1.667.0279h.812v-.4341a3.9181,3.9181,0,0,0-.0976-1.0088,7.9762,7.9762,0,0,1,.91.07c.1124.0137.1822.0557.1822.1118a.5407.5407,0,0,1-.084.2525,1.1184,1.1184,0,0,0-.07.5742v.4341h.6723c1.2046,0,1.5967-.0279,1.667-.0279.0977,0,.1118.0137.1118.1119Zm-4.3842.5039c.1118-.0419.14-.0278.1958.0567a6.2962,6.2962,0,0,1,.6025,1.3867c.0278.0977.0142.14-.126.1958l-.35.14c-.1821.0557-.2241.0557-.2524-.07a6.7384,6.7384,0,0,0-.5322-1.4c-.0562-.0981-.042-.1259.14-.1963ZM47.7729,103.53c0,.0986-.0141.1123-.1123.1123-.07,0-.4619-.0279-1.6948-.0279h-.07V108.56c0,1.5127.0278,2.0166.0278,2.0869,0,.1123-.0136.1123-.1118.1123h-.6865c-.0982,0-.1118,0-.1118-.1123,0-.07.0278-.5742.0278-2.0869v-4.9449H42.9546a17.0549,17.0549,0,0,1-.3506,4.1041,6.4777,6.4777,0,0,1-1.4287,2.7734c-.084.1123-.14.1543-.1958.1543s-.0982-.0283-.1821-.1123a1.5617,1.5617,0,0,0-.5323-.3223,6.1884,6.1884,0,0,0,1.5967-2.9414,18.01,18.01,0,0,0,.28-3.936v-1.7232a16.6154,16.6154,0,0,0-.0982-1.9746,4.4918,4.4918,0,0,1,.9107.28,13.0126,13.0126,0,0,0,2.7871-1.0928,3.4709,3.4709,0,0,0,.7007-.5044,4.36,4.36,0,0,1,.6162.63.3027.3027,0,0,1,.084.1963c0,.0556-.07.1118-.1822.126a1.56,1.56,0,0,0-.518.1679,18.84,18.84,0,0,1-3.4878,1.2608v2.1572h3.0112c1.2329,0,1.625-.0283,1.6948-.0283.0982,0,.1123.0141.1123.1123Z"/><path d="M61.5068,107.3545c0,.0986-.0141.1123-.1123.1123-.07,0-.5039-.0283-1.8208-.0283H55.68v1.7929c0,1.0088.0278,1.4434.0278,1.5132,0,.084-.0137.0982-.1118.0982H54.895c-.0976,0-.1118-.0142-.1118-.0982s.0278-.5044.0278-1.5132v-1.7929h-3.67c-1.3164,0-1.751.0283-1.8208.0283-.0981,0-.1123-.0137-.1123-.1123v-.63c0-.0986.0142-.1123.1123-.1123.07,0,.5044.0283,1.8208.0283h3.67v-.0283a4.605,4.605,0,0,0-.0839-1.2324c.3222.0137.6445.042.9248.07.1259.0142.1538.0562.1538.1118a.4667.4667,0,0,1-.07.2246,1.4477,1.4477,0,0,0-.0561.5039v.3506h3.894c1.3169,0,1.751-.0283,1.8208-.0283.0982,0,.1123.0137.1123.1123Zm-.2944-6.7793c0,.0977-.0137.1118-.1118.1118-.084,0-.5322-.0278-1.877-.0278H51.4355c-1.3447,0-1.7929.0278-1.8774.0278-.0977,0-.1118-.0141-.1118-.1118V99.959c0-.0986.0141-.1123.1118-.1123.0845,0,.5327.0283,1.8774.0283h3.39v-.28a5.8877,5.8877,0,0,0-.0981-1.415c.3364.0141.6162.0283.9384.07.0982.0137.168.0557.168.1118a.6731.6731,0,0,1-.084.2525,3.0931,3.0931,0,0,0-.07.98v.28h3.5439c1.3448,0,1.793-.0283,1.877-.0283.0981,0,.1118.0137.1118.1123Zm-8.3345,2.0732a7.1629,7.1629,0,0,0,2.0034,1.8907,2.0239,2.0239,0,0,0-.3642.4482c-.084.126-.126.1821-.1821.1821a.3268.3268,0,0,1-.1822-.0981,7.6879,7.6879,0,0,1-1.6386-1.751,7.84,7.84,0,0,1-2.1153,2.3115c-.0981.07-.1543.1123-.1963.1123-.0561,0-.0981-.0566-.21-.1684a1.8564,1.8564,0,0,0-.49-.3784,7.17,7.17,0,0,0,2.7735-3.1934,3.3272,3.3272,0,0,0,.2519-.9526c.3081.07.5606.14.77.21.14.042.1963.0977.1963.1817a.2.2,0,0,1-.084.1679,1.6037,1.6037,0,0,0-.3085.5469Zm7.9146,2.7871c-.07.168-.0982.2247-.168.2247a.7118.7118,0,0,1-.21-.07,7.9161,7.9161,0,0,1-2.8433-2.1992,9.1728,9.1728,0,0,1-1.2466,1.6807c-.0845.084-.14.1406-.1963.1406s-.0981-.0566-.1963-.1684a1.171,1.171,0,0,0-.42-.3365,6.8545,6.8545,0,0,0,1.8487-2.7314,3.423,3.423,0,0,0,.21-.8682,7.3737,7.3737,0,0,1,.77.2241c.1118.042.1816.0982.1816.168,0,.0562-.0278.0982-.0976.1538a1.0036,1.0036,0,0,0-.2524.4629c-.07.1958-.1539.3779-.2378.56a7.3782,7.3782,0,0,0,3.2075,2.2412A1.4076,1.4076,0,0,0,60.7925,105.4355Z"/><path d="M66.9922,104.4268a1.1626,1.1626,0,1,1-1.1626-1.1622A1.169,1.169,0,0,1,66.9922,104.4268Z"/><path d="M81.4561,104.1748c0,2.1992.0283,2.5356.0283,2.62,0,.0982-.0142.1119-.1123.1119h-.6582c-.0982,0-.1123-.0137-.1123-.1119v-.7285h-3.95v2.0313c0,1.6948.0278,2.4511.0278,2.521,0,.0986-.0142.1123-.1123.1123H75.853c-.0976,0-.1118-.0137-.1118-.1123,0-.07.0278-.8125.0278-2.5069v-2.0454H72.0713v.7847c0,.0976-.0142.1118-.1123.1118h-.6582c-.0982,0-.1123-.0142-.1123-.1118,0-.084.0283-.4346.0283-2.6338V102.9c0-1.3169-.0283-1.709-.0283-1.7793,0-.0977.0141-.1118.1123-.1118.07,0,.5742.0278,1.9751.0278H75.769v-1.12a9.5512,9.5512,0,0,0-.0981-1.793c.3506.0137.6865.042.9668.07.084.0142.168.07.168.126a.63.63,0,0,1-.07.2525,5.4643,5.4643,0,0,0-.0839,1.2744v1.19H79.397c1.415,0,1.9052-.0278,1.9751-.0278.0981,0,.1123.0141.1123.1118,0,.07-.0283.4482-.0283,1.583Zm-5.6871-2.353H72.0713v3.46H75.769Zm4.8326,0h-3.95v3.46h3.95Z"/><path d="M86.9956,107.8867a2.2479,2.2479,0,0,0,1.2466,1.3731,8.024,8.024,0,0,0,2.8017.3359c1.793,0,3.7959-.0977,5.8692-.2939a1.5393,1.5393,0,0,0-.2525.63c-.0419.2945-.0419.2945-.3217.3081-1.8213.1123-3.544.168-4.9727.168a9.53,9.53,0,0,1-3.4458-.4341,2.6276,2.6276,0,0,1-1.331-1.3867,13.9283,13.9283,0,0,1-1.4707,1.3447,1.7216,1.7216,0,0,0-.3223.3081c-.042.07-.084.1123-.1538.1123a.2036.2036,0,0,1-.1685-.1123,6.1865,6.1865,0,0,1-.4062-.7422,4.7315,4.7315,0,0,0,.8545-.5185,7.7374,7.7374,0,0,0,1.2607-1.1348v-3.4736H85.1748c-.7144,0-.8965.0283-.9526.0283-.1123,0-.126-.0146-.126-.1123v-.6162c0-.0981.0137-.1123.126-.1123.0561,0,.2382.0283.9526.0283h.7422c.7143,0,.9248-.0283.9946-.0283.0982,0,.1123.0142.1123.1123,0,.07-.0283.4341-.0283,1.3164ZM85.1187,98.74c.1259-.0981.1679-.0839.2241-.0283a12.0885,12.0885,0,0,1,1.6108,1.961c.042.07.042.0986-.1118.21l-.3364.2661c-.168.126-.1963.126-.2661.0137a11.33,11.33,0,0,0-1.5269-1.961c-.084-.0839-.084-.1259.07-.2236Zm11.3042,3.5157c-.084.1543-.126.21-.1822.21a.5063.5063,0,0,1-.1821-.07,11.05,11.05,0,0,1-4.1465-3.32,10.8121,10.8121,0,0,1-3.852,3.4179.49.49,0,0,1-.1958.084c-.07,0-.0982-.0556-.1963-.21a1.4536,1.4536,0,0,0-.4063-.42,10.0508,10.0508,0,0,0,3.88-3.1656,2.3509,2.3509,0,0,0,.3642-.7285,7.3266,7.3266,0,0,1,.84.1963c.1118.0278.1538.084.1538.1538,0,.0562-.0278.0982-.126.14a9.9311,9.9311,0,0,0,4.4683,3.18A2.4268,2.4268,0,0,0,96.4229,102.2559ZM90.1055,106.01a1.9615,1.9615,0,0,0-.2661.3364,8.5121,8.5121,0,0,1-1.4009,1.5688c-.1123.0977-.168.14-.21.14-.0561,0-.0981-.0425-.1963-.14a1.7,1.7,0,0,0-.4482-.3081,7.149,7.149,0,0,0,1.4565-1.4848,3.4245,3.4245,0,0,0,.42-.8125,5.5808,5.5808,0,0,1,.6446.3359c.0981.0566.1538.1123.1538.1826S90.2036,105.94,90.1055,106.01Zm6.0512-1.4566c0,.0982-.0141.1118-.1123.1118-.07,0-.5464-.0278-1.9331-.0278H92.4165v1.0649c0,.6861.0142,1.3584.0142,1.82,0,.5468-.084.7846-.35.9809-.1822.1538-.5186.2378-1.3868.2378-.2661,0-.2944-.0137-.3642-.28a1.9377,1.9377,0,0,0-.2525-.5742,6.5686,6.5686,0,0,0,.8965.0567c.5327,0,.6446-.0987.6446-.5328v-2.7734h-1.667c-1.3867,0-1.8491.0278-1.919.0278-.0981,0-.1118-.0136-.1118-.1118v-.56c0-.0987.0137-.1123.1118-.1123.07,0,.5323.0283,1.919.0283h1.667v-1.4854h-.49c-1.0644,0-1.3725.0283-1.4428.0283-.0982,0-.1119-.0141-.1119-.1123v-.5322c0-.0976.0137-.1123.1119-.1123.07,0,.392.0283,1.4707.0283h1.7089c1.0645,0,1.3868-.0283,1.4571-.0283.1118,0,.126.0147.126.1123v.5322c0,.0982-.0142.1123-.126.1123-.07,0-.3926-.0283-1.4571-.0283h-.4482v1.4854h1.6948c1.3867,0,1.8633-.0283,1.9331-.0283.0982,0,.1123.0136.1123.1123Zm-1.9751.7984c.1119-.07.14-.07.21.0283a8.1986,8.1986,0,0,0,2.0029,2.1152,2.2036,2.2036,0,0,0-.4619.3779c-.084.1124-.126.168-.1821.168-.042,0-.0982-.0556-.1963-.14a9.4616,9.4616,0,0,1-1.7646-2.1436c-.0562-.0976-.07-.126.07-.21Z"/><path d="M102.06,101.6816c0,.0982-.0137.1123-.1119.1123-.0839,0-.3364-.0283-1.2329-.0283v2.7456c.42-.1821.8828-.3921,1.3169-.6167-.0141.1543-.0278.3223-.0278.5186,0,.28-.0283.2939-.2661.4062-.3364.168-.6865.3223-1.023.4766v1.7783c0,.9112.0284,1.583.0284,2.1153,0,.6728-.1124.9106-.3643,1.121-.2661.21-.5606.2657-1.415.252-.2662,0-.294-.0142-.35-.28a1.7837,1.7837,0,0,0-.252-.6162,6.7826,6.7826,0,0,0,1.0083.0557c.4063,0,.5322-.1538.5322-.6582V105.66c-.3081.1259-.602.2519-.8681.35a1.5375,1.5375,0,0,0-.5464.28.2445.2445,0,0,1-.168.084.1584.1584,0,0,1-.14-.126,6.2043,6.2043,0,0,1-.2383-.7983,7.251,7.251,0,0,0,1.2466-.3364c.1821-.0557.42-.1538.7143-.2656v-3.0821h-.4057c-.9107,0-1.1768.0283-1.2471.0283-.0977,0-.1118-.0141-.1118-.1123v-.5883c0-.0982.0141-.1119.1118-.1119.07,0,.3364.0279,1.2471.0279h.4057V99.86a8.8672,8.8672,0,0,0-.0976-1.6944,7.4791,7.4791,0,0,1,.8965.084c.1118.0137.1821.0557.1821.1118a.6134.6134,0,0,1-.0982.2661,4.5337,4.5337,0,0,0-.07,1.2188v1.1626c.8965,0,1.149-.0279,1.2329-.0279.0982,0,.1119.0137.1119.1119Zm4.7768,4.0342a9.8863,9.8863,0,0,0,3.7959,3.1094,1.8461,1.8461,0,0,0-.3779.5186c-.07.1259-.1123.1821-.1821.1821a.5562.5562,0,0,1-.2242-.084,9.7385,9.7385,0,0,1-3.39-3.32c0,1.8769.07,3.7539.07,4.4824,0,.0976-.0142.1123-.126.1123h-.63c-.0982,0-.1123-.0147-.1123-.1123,0-.7285.0561-2.5635.07-4.4268a9.4906,9.4906,0,0,1-3.4458,3.334.3713.3713,0,0,1-.1958.084c-.07,0-.1123-.07-.21-.2236a1.3287,1.3287,0,0,0-.3779-.4063,9.4685,9.4685,0,0,0,3.7817-3.25h-.98c-1.3867,0-1.8487.0283-1.919.0283-.0981,0-.1118-.0146-.1118-.1123v-.5464c0-.0981.0137-.1118.1118-.1118.07,0,.5323.0279,1.919.0279h1.3867v-.0562a8.5062,8.5062,0,0,0-.07-1.3306c.3364.0142.6025.042.8686.07.126.0141.168.07.168.1259,0,.0987-.07.1827-.0982.28a3.17,3.17,0,0,0-.0561.8545v.0562h1.7651c1.3867,0,1.8491-.0279,1.919-.0279.1123,0,.1259.0137.1259.1118v.5464c0,.0977-.0136.1123-.1259.1123-.07,0-.5323-.0283-1.919-.0283Zm2.7456-6.4853a4.7792,4.7792,0,0,0-.7148.1816,29.6038,29.6038,0,0,1-5.729.9805c-.294.0283-.336.0283-.42-.2378a1.3455,1.3455,0,0,0-.28-.4761,26.3061,26.3061,0,0,0,5.5469-.8266,3.3378,3.3378,0,0,0,1.0507-.4483,5.5547,5.5547,0,0,1,.6441.49.2437.2437,0,0,1,.1123.1963C109.7925,99.16,109.7222,99.2163,109.5825,99.2305Zm-6.2334,2.0449c.14-.07.168-.0557.2378.042a8.0983,8.0983,0,0,1,.8828,1.7373c.042.1118.0279.1538-.1543.2236l-.35.1406c-.1679.0694-.21.0694-.2519-.0566a6.531,6.531,0,0,0-.8125-1.7227c-.07-.0981-.0283-.14.1118-.21Zm2.4932-.4063c.168-.07.1821-.0556.2519.042a8.42,8.42,0,0,1,.7427,1.8213c.0278.1118.0142.126-.168.1958l-.35.1265c-.1822.07-.21.07-.252-.0567a8.7839,8.7839,0,0,0-.7-1.8349c-.042-.084-.0283-.0977.14-.168Zm3.9082.168a1.2981,1.2981,0,0,0-.28.4063,14.255,14.255,0,0,1-1.2187,2.1572c-.084.126-.126.1821-.1822.1821s-.1118-.042-.2241-.1118a1.3806,1.3806,0,0,0-.3921-.168,12.1072,12.1072,0,0,0,1.3028-2.4238,3.5617,3.5617,0,0,0,.1679-.6719,5.5792,5.5792,0,0,1,.77.294c.14.07.168.1123.168.1821S109.8066,100.9951,109.7505,101.0371Z"/><path d="M121.5229,98.9365c1.4151,0,1.9195-.0283,2.0035-.0283.0981,0,.1118.0137.1118.1123,0,.07-.0278.7422-.0278,2.1992v6.2188c0,.6445.0141,1.289.0141,1.8769a1.103,1.103,0,0,1-.4062.9668c-.2662.1963-.6167.28-1.7373.28-.294,0-.294,0-.35-.28a1.7242,1.7242,0,0,0-.252-.6445,13.573,13.573,0,0,0,1.3867.0566c.35,0,.49-.1826.49-.5605v-2.9561h-3.9224v1.667c0,1.583.0283,2.2412.0283,2.3252,0,.0987-.0141.1123-.1123.1123h-.6724c-.0976,0-.1118-.0136-.1118-.1123,0-.084.0279-.7422.0279-2.3252v-1.667h-3.7539a7.8033,7.8033,0,0,1-1.4288,4.1748c-.0839.1119-.1123.168-.1679.168-.042,0-.0982-.042-.1963-.14a2.6123,2.6123,0,0,0-.5884-.35c1.1206-1.4151,1.6392-2.8574,1.6392-6.71V101.22c0-1.457-.0283-2.1294-.0283-2.1992,0-.0986.0141-.1123.1123-.1123.0839,0,.5742.0283,1.9887.0283Zm-3.53,4.0059h-3.6421v.3779c0,.7988-.0279,1.499-.0557,2.1016h3.6978Zm0-3.2359h-3.6421v2.479h3.6421Zm4.7627,0h-3.9224v2.479h3.9224Zm0,3.2359h-3.9224v2.4795h3.9224Z"/><path d="M129.0234,99.4961a.2367.2367,0,0,1,.084.3789,2.2507,2.2507,0,0,0-.2241.7,27.653,27.653,0,0,0-.6724,5.1689,18.1981,18.1981,0,0,0,.0982,2.4229c.2944-.7564.6162-1.4566.9805-2.2832a2.1415,2.1415,0,0,0,.3222.5742.254.254,0,0,1,.0142.3086,12.0854,12.0854,0,0,0-.84,2.2129,2.43,2.43,0,0,0-.0141.63.1343.1343,0,0,1-.07.1821,3.6838,3.6838,0,0,1-.63.1821c-.0977.0279-.14,0-.1816-.1118a12.0805,12.0805,0,0,1-.5328-4.0908,31.5672,31.5672,0,0,1,.6026-5.2525,5.9535,5.9535,0,0,0,.07-1.3867A3.52,3.52,0,0,1,129.0234,99.4961Zm5.3653,3.2783a25.7256,25.7256,0,0,1-3.1241.0137c-.0839,0-.14-.0137-.1538-.126a5.6862,5.6862,0,0,1-.0561-.7422,23.6887,23.6887,0,0,0,3.3057,0c0-.5185.0141-1.0508.0141-1.6113a5.1578,5.1578,0,0,0-.14-1.2461,4.66,4.66,0,0,1,1.0786.1958c.0981.042.1543.0981.1543.1685a.3844.3844,0,0,1-.0562.1958,1.95,1.95,0,0,0-.1123.6723c-.0278.49-.0278.9805-.0278,1.5547.7285-.07,1.4849-.1816,2.2129-.3223.1123-.0278.1265,0,.14.0987a3.57,3.57,0,0,1,.0562.5595c0,.0987-.042.1543-.0982.1685a17.63,17.63,0,0,1-2.311.3364c.0142,1.6387.0561,2.97.126,4.23a10.0043,10.0043,0,0,1,2.4653,1.4429c.07.0556.07.084.0278.1821a2.62,2.62,0,0,1-.3779.6162c-.0561.0845-.1123.07-.168.0142a9.1375,9.1375,0,0,0-1.9614-1.2891c-.0557,1.2329-.7563,1.8916-2.3389,1.8916-1.3168,0-2.1855-.5747-2.1855-1.5971,0-1.0367.9668-1.667,2.1572-1.667a7.5182,7.5182,0,0,1,1.4707.1538C134.4307,105.5059,134.3887,104.2168,134.3887,102.7744Zm.0976,4.7481a5.4917,5.4917,0,0,0-1.5268-.2378c-.7842,0-1.3028.3222-1.3028.8965,0,.5043.5044.7983,1.3448.7983.9946,0,1.4848-.4482,1.4848-1.19Z"/><path d="M142.0718,105.4775c.084.042.0981.0982.042.1827a2.2175,2.2175,0,0,0-.3784,1.0922c0,1.149,1.2885,1.7085,3.5859,1.7085a17.445,17.445,0,0,0,4.02-.4057c.126-.0279.168-.0142.1958.0981a6.99,6.99,0,0,1,.126.7285c.0141.1119-.042.1538-.1822.1817a20.1852,20.1852,0,0,1-4.2441.3642c-2.7173,0-4.3564-.8261-4.3564-2.6333a2.9133,2.9133,0,0,1,.5747-1.6528C141.6514,105.2393,141.8755,105.3657,142.0718,105.4775Zm3.2778-5.2387c1.0083,0,2.1289-.042,3.0957-.126.126-.0142.1821.0278.1958.126a4.0257,4.0257,0,0,1,.042.63c0,.1543-.0557.1963-.1958.21a9.2755,9.2755,0,0,0-3.6279,1.5972.3182.3182,0,0,1-.3926.0278,1.5738,1.5738,0,0,0-.5742-.28,18.3871,18.3871,0,0,1,2.4092-1.4c-.462.042-1.0787.0557-1.5127.0557a14.6,14.6,0,0,1-2.8433-.252c-.0845-.0136-.1265-.0556-.1265-.1962,0-.1817.0142-.4761.0284-.7139A16.6707,16.6707,0,0,0,145.35,100.2388Z"/><path d="M155.5684,99.833a3.6366,3.6366,0,0,0-.0279-1.2471,4.0774,4.0774,0,0,1,1.1348.2383c.0976.042.1538.0977.1538.1817a.35.35,0,0,1-.084.1962,1.2172,1.2172,0,0,0-.1821.4625c-.0982.5463-.14.8964-.2241,1.4848a25.2815,25.2815,0,0,0,3.0117-.5884c.126-.042.168-.0278.1821.0982a4.2149,4.2149,0,0,1,.0562.6025c0,.1118-.0284.14-.14.168-1.1069.2519-2.1714.4341-3.2778.5879-.21,1.3867-.4482,2.6054-.77,3.9082a5.8093,5.8093,0,0,1,4.2441-1.919c1.9751,0,2.97,1.1768,2.97,2.5074a2.8956,2.8956,0,0,1-1.667,2.6616,10.3878,10.3878,0,0,1-3.544.9805,3.683,3.683,0,0,1-.686.07c-.0982,0-.1543-.042-.2241-.1963a1.5168,1.5168,0,0,0-.4766-.6162,10.889,10.889,0,0,0,4.1323-.8828,2.1768,2.1768,0,0,0,1.4429-2.045c0-1.0508-.7427-1.6806-2.0313-1.6806a5.1349,5.1349,0,0,0-3.9638,1.9609c-.1265.168-.2383.3223-.3223.4619-.084.126-.126.1821-.2383.168a3.096,3.096,0,0,1-.6162-.1958c-.126-.0562-.1821-.1118-.1821-.1958a1.0819,1.0819,0,0,1,.0561-.2383c.07-.2246.1119-.3926.1539-.5322.3222-1.2749.5742-2.5635.8266-4.1182-.84.084-1.8911.14-2.7734.1538a.1673.1673,0,0,1-.1963-.1538,7.1688,7.1688,0,0,1-.1118-.7148,27.6041,27.6041,0,0,0,3.2075-.14C155.47,100.8135,155.5127,100.4492,155.5684,99.833Z"/><path d="M167.2725,101.99c.1679.0982.1821.2242.0839.35a1.8131,1.8131,0,0,0-.21.6582,25.4406,25.4406,0,0,0-.4063,3.2081,6.6514,6.6514,0,0,1,4.8887-2.5215c1.9048,0,3.0117,1.0927,3.0117,2.6758a3.2172,3.2172,0,0,1-2.1015,2.9834,10.3843,10.3843,0,0,1-3.4038.9248c-.2242.0278-.294.0278-.3643-.126a2.2278,2.2278,0,0,0-.63-.6865,11.2817,11.2817,0,0,0,3.81-.8687,2.5072,2.5072,0,0,0,1.6806-2.311c0-.9951-.63-1.7652-2.1152-1.7652a6.29,6.29,0,0,0-4.16,2.1851,3.4707,3.4707,0,0,0-.6162.8262c-.07.1123-.1123.1123-.2241.07a5.4812,5.4812,0,0,1-.5742-.252c-.084-.042-.1123-.07-.1123-.1963a41.28,41.28,0,0,1,.4062-4.3984,8.3416,8.3416,0,0,0,.1123-1.1626A4.5129,4.5129,0,0,1,167.2725,101.99Zm.6723-3.4038a.148.148,0,0,1,.1963-.042,8.3126,8.3126,0,0,1,2.563,1.5967c.0845.07.0845.0982.0283.1963a4.3915,4.3915,0,0,1-.4624.6026c-.07.0839-.14.0839-.2241,0a9.1578,9.1578,0,0,0-2.5913-1.709A3.9882,3.9882,0,0,1,167.9448,98.5859Z"/><path class="cls-6" d="M105.2485,41.0669a15.4388,15.4388,0,0,0-8.8027-3.02c-6.2676-.2925-11.2217-7.1426-7.1406-11.5156,3.3994-3.6426,10.6391-4.0816,15.2085,1.2963A11.0724,11.0724,0,0,1,105.2485,41.0669Z"/><path class="cls-6" d="M105.2485,41.0669a15.4456,15.4456,0,0,1,8.8042-3.0215c6.2671-.2915,11.2237-7.1416,7.1416-11.5141-3.4008-3.6431-10.6411-4.0821-15.21,1.2958A11.0723,11.0723,0,0,0,105.2485,41.0669Z"/><path class="cls-7" d="M192.75,5.75h-28l38,38v-28A10.0294,10.0294,0,0,0,192.75,5.75Z"/><rect class="cls-8" x="128.75" y="52.75" width="13" height="22"/><path d="M33.7817,52.62h8.6509a8.9369,8.9369,0,0,1,6.2368,2.0781,7.21,7.21,0,0,1,2.293,5.6177A9.643,9.643,0,0,1,49.91,64.5146a7.3216,7.3216,0,0,1-3.877,3.418l7.35,10.9483H46.8784L40.082,68.72h-.6406V78.8809h-5.66Z"/><path class="cls-9" d="M39.4819,57.3v6.84h1.2242q4.4355,0,4.4365-3.62a2.791,2.791,0,0,0-1.1553-2.3511A5.2187,5.2187,0,0,0,40.7866,57.3Z"/><polygon points="57.07 52.62 71.852 52.62 71.852 57.819 62.73 57.819 62.73 63.12 71.852 63.12 71.852 68.24 62.73 68.24 62.73 73.681 71.852 73.681 71.852 78.881 57.07 78.881 57.07 52.62"/><path d="M96.3008,54.02v6.4A15.038,15.038,0,0,0,88.84,57.86,6.46,6.46,0,0,0,83.72,60.06,8.689,8.689,0,0,0,81.8,65.98,7.7958,7.7958,0,0,0,83.82,71.61a7.1271,7.1271,0,0,0,5.4,2.11,14.805,14.805,0,0,0,7.0806-2.38v6.36A25.3434,25.3434,0,0,1,88.6,79.24a11.9527,11.9527,0,0,1-9-3.89A13.2581,13.2581,0,0,1,75.9,65.86a13.4547,13.4547,0,0,1,3.77-9.6509A12.2,12.2,0,0,1,88.84,52.26,18.514,18.514,0,0,1,96.3008,54.02Z"/><path d="M101.25,52.62h8.65a8.9387,8.9387,0,0,1,6.2378,2.0781,7.2073,7.2073,0,0,1,2.293,5.6177,9.6348,9.6348,0,0,1-1.0523,4.1987,7.3256,7.3256,0,0,1-3.8765,3.418l7.3492,10.9483h-6.5044L107.5508,68.72H106.91V78.8809h-5.66Z"/><path class="cls-7" d="M106.9507,57.3v6.84h1.2241q4.4363,0,4.4365-3.62a2.7937,2.7937,0,0,0-1.1543-2.3511,5.2214,5.2214,0,0,0-3.2021-.8691Z"/><path d="M124.0156,52.62h5.58V68.68a5.1326,5.1326,0,0,0,1.24,3.6,4.2024,4.2024,0,0,0,3.26,1.3593,4.6786,4.6786,0,0,0,3.5991-1.37,5.4483,5.4483,0,0,0,1.2813-3.8706V52.62h5.5605v17a10.7,10.7,0,0,1-1.1606,4.65,8.0394,8.0394,0,0,1-3.57,3.6909A11.306,11.306,0,0,1,134.416,79.24q-5.4,0-7.9009-3.01a9.7775,9.7775,0,0,1-2.4995-6.33Z"/><rect x="150.1299" y="52.6201" width="5.6606" height="26.2608"/><polygon points="159.058 52.62 176.718 52.62 176.718 58.2 170.698 58.2 170.698 78.881 165.038 78.881 165.038 58.2 159.058 58.2 159.058 52.62"/></g></svg>